<svg xmlns="http://www.w3.org/2000/svg" viewBox="0 0 24 24" fill="#111" role="img" aria-hidden="true">
  <path fill="none" stroke="#111" stroke-width="1.1" stroke-linecap="round" d="M7.2 5.4c-.35.75 0 1.45 0 2.15M12 4.6v2.55M16.8 5.4c.35.75 0 1.45 0 2.15"/>
  <path fill="none" stroke="#111" stroke-width="1.05" stroke-linecap="round" d="M5.6 17.3a6.4 6.4 0 0112.8 0"/>
  <path fill="none" stroke="#111" stroke-width="1" stroke-linecap="round" d="M6.9 19a5.1 5.1 0 0110.2 0" opacity=".55"/>
  <path d="M10.2 8.5L12 17.6l1.8-9.1c.18-.9-.38-1.15-.68-1.15s-.95.25-.77 1.15zm-.15 2.35h3.9l-.5-1.45h-2.9l-.5 1.45z"/>
  <path d="M14.4 8.2l2.9 9.4h.95L15.35 8.2c-.1-.42-.35-.55-.55-.55s-.42.18-.35.55l1.1 4.2-1.35 5.2h.85l1.05-4.4.95 4.4h.85L15.5 8.45c-.08-.3-.35-.45-.55-.45s-.42.15-.55.45z"/>
</svg>
