<svg xmlns="http://www.w3.org/2000/svg" viewBox="0 0 24 24" fill="#111" role="img" aria-hidden="true">
  <path d="M8.75 2.4V8.6c0 .38.28.68.65.68h1.45c.37 0 .65-.3.65-.68V2.4h-2.75zm-.15 8.35c-.72 0-1.3.58-1.3 1.3v5.55h1.2v-4.25h.75v4.25h1.2v-5.55c0-.72-.58-1.3-1.3-1.3h-.55z"/>
  <path d="M8.75 2.4c0-.95.78-1.72 1.75-1.72s1.75.77 1.75 1.72" fill="none" stroke="#111" stroke-width="1" stroke-linecap="round"/>
  <path d="M10.5.85c1.15.15 2 1.12 2 2.3v.85" fill="none" stroke="#111" stroke-width="1" stroke-linecap="round"/>
  <path d="M12.45 4.05a1.55 1.55 0 11-3.1 0 1.55 1.55 0 013.1 0z"/>
  <path d="M9.1 19.4c-.35.4-.34.98.04 1.36l.42.42.42-.42c.38-.38.39-.96.04-1.36l-.46-.52-.46.52z"/>
  <path d="M12 20.85c-.35.4-.34.98.04 1.36l.35.35.35-.35c.38-.38.39-.96.04-1.36l-.39-.45-.39.45z"/>
  <path d="M14.9 19.4c-.35.4-.34.98.04 1.36l.42.42.42-.42c.38-.38.39-.96.04-1.36l-.46-.52-.46.52z"/>
</svg>
